<svg width="780" height="1024" viewBox="0 0 780 1024" fill="none" xmlns="http://www.w3.org/2000/svg">
<mask id="mask0_387_5891" style="mask-type:alpha" maskUnits="userSpaceOnUse" x="0" y="-6" width="780" height="1037">
<rect y="-6" width="780" height="1037" fill="#D9D9D9"/>
</mask>
<g mask="url(#mask0_387_5891)">
<path d="M780.427 -6H-2.42969V1031.18H780.427V-6Z" fill="url(#paint0_linear_387_5891)"/>
<path d="M793.297 6H396H25.5V521.5V1031H793.297L793.297 6Z" fill="#B3D0D9"/>
<path opacity="0.8" d="M-72 57.1029C-37.1821 72.874 -2.28425 85 35.3951 85C60.3079 85 86.4212 79.7181 114.556 66.6995C143.811 53.1601 164.621 37.7609 188.714 19.9067C203.701 8.82224 219.91 -3.17972 240 -16H232.556C215.047 -4.56838 200.5 6.21851 186.953 16.2367C163.001 33.9669 142.33 49.2917 113.355 62.6823C42.939 95.2661 -12.9097 79.619 -71.8199 52.6889C-71.92 54.152 -71.96 55.615 -72 57.1029Z" fill="url(#paint1_linear_387_5891)"/>
<path opacity="0.8" d="M349.275 652.636C397.569 674.456 445.974 691.232 498.236 691.232C532.791 691.232 569.012 683.924 608.035 665.913C648.613 647.182 677.478 625.877 710.895 601.176C731.684 585.841 754.165 569.237 782.031 551.5H771.706C747.421 567.315 727.243 582.239 708.453 596.099C675.23 620.628 646.559 641.83 606.37 660.356C508.7 705.435 431.236 683.787 349.525 646.53C349.386 648.554 349.331 650.578 349.275 652.636Z" fill="url(#paint2_linear_387_5891)"/>
<path d="M1005.53 648.482C970.797 624.683 860.863 561.753 745.081 624.971C651.369 676.121 558.084 836.007 415.106 751.327C196.033 621.509 -66.2607 560.682 -225.368 676.479L722.164 1186.2L1005.53 648.482Z" fill="url(#paint3_linear_387_5891)" fill-opacity="0.5"/>
<path opacity="0.8" d="M-149.673 85.676C-133.936 159.024 -109.789 218.855 -54.6126 238.925C-9.28868 255.392 25.0165 228.53 68.4253 194.532C114.665 158.304 172.229 113.259 265.43 104.613C390.855 93.0519 483.029 138.303 572.151 182.112C671.541 230.965 765.409 277.108 885.726 221.565C926.304 202.834 955.169 181.529 988.586 156.828C1022.48 131.784 1060.89 103.413 1119.87 72.3306C1125.7 69.243 1131.58 66.3612 1137.44 63.4108V57.0298C1130.94 60.2546 1124.42 63.5138 1117.98 66.9101C1058.7 98.1637 1020.14 126.638 986.116 151.785C952.893 176.315 924.223 197.516 884.033 216.042C765.436 270.796 676.648 227.157 573.871 176.623C488.414 134.632 391.577 87.0139 265.042 98.7126C170.647 107.461 112.528 152.952 65.8441 189.523C23.4345 222.732 -10.0381 248.976 -53.3081 233.23C-111.816 211.959 -134.325 143.037 -149.701 61.0437V85.6417L-149.673 85.676Z" fill="white"/>
<path opacity="0.8" d="M1032.08 917.068C1007.35 896.518 983.369 878.061 951.95 860.77C836.295 797.131 745.509 833.942 640.428 876.551C553.056 911.99 454.026 952.198 328.296 930.893C229.405 914.152 173.034 867.186 127.71 829.414C89.5473 797.646 59.4332 772.533 16.8015 772.533H16.6905C-116.339 772.67 -161.302 874.047 -204.794 972.096C-220.06 1006.54 -235.63 1041.43 -255.059 1072.13V1062.84C-237.934 1034.43 -223.612 1002.25 -208.985 969.248C-164.827 869.69 -119.142 766.77 16.6905 766.632H16.8015C60.8764 766.632 93.1 793.46 130.375 824.542C175.282 861.937 231.153 908.491 328.934 925.061C453.554 946.194 547.782 907.942 638.93 870.994C740.568 829.757 836.545 790.853 953.865 855.418C984.507 872.297 1008.07 890.171 1032.05 910V917.102L1032.08 917.068Z" fill="white"/>
<path opacity="0.8" d="M772.404 424.078C875.319 400.269 993.972 356.871 1104.63 299.201V-6H762.002C745.987 82.9576 700.546 121.561 645.619 188.39C435.014 444.594 74.9486 267.81 42.3365 400.544C19.3831 493.995 196.765 586.178 186.607 730.541C178.086 851.678 43.974 917.616 -75.6777 972.919V1031.03H468.154C416.668 868.489 311.865 681.482 374.591 547.857C429.047 431.797 554.166 474.612 772.404 424.112V424.078Z" fill="url(#paint4_linear_387_5891)" fill-opacity="0.8"/>
<path opacity="0.46" d="M-2.42969 337.437V564.666C273.814 343.2 722.593 451.432 752.517 319.568C775.148 219.89 508 156.5 504.5 62.5C504.5 39.8098 510.618 14.7255 521 -5.5H256C311.428 91.604 321.95 126.302 279.274 211.227C236.562 296.225 143.236 312.101 -2.42969 337.437Z" fill="url(#paint5_linear_387_5891)" fill-opacity="0.7"/>
</g>
<defs>
<linearGradient id="paint0_linear_387_5891" x1="917.954" y1="-610.194" x2="-870.177" y2="1809.09" gradientUnits="userSpaceOnUse">
<stop offset="0.53" stop-color="#B3D0D9"/>
</linearGradient>
<linearGradient id="paint1_linear_387_5891" x1="179.169" y1="-178.671" x2="-146.014" y2="260.171" gradientUnits="userSpaceOnUse">
<stop offset="0.2" stop-color="white"/>
</linearGradient>
<linearGradient id="paint2_linear_387_5891" x1="697.656" y1="326.447" x2="248.109" y2="934.682" gradientUnits="userSpaceOnUse">
<stop offset="0.2" stop-color="white"/>
</linearGradient>
<linearGradient id="paint3_linear_387_5891" x1="-83.2937" y1="406.875" x2="880.82" y2="914.938" gradientUnits="userSpaceOnUse">
<stop offset="0.93" stop-color="#2A5C6B"/>
</linearGradient>
<linearGradient id="paint4_linear_387_5891" x1="-668.968" y1="-29.904" x2="2117.97" y2="760.664" gradientUnits="userSpaceOnUse">
<stop offset="0.45" stop-color="#2A5C6B"/>
</linearGradient>
<linearGradient id="paint5_linear_387_5891" x1="963.849" y1="-400.648" x2="-23.8889" y2="691.775" gradientUnits="userSpaceOnUse">
<stop offset="0.2" stop-color="#2A5C6B"/>
</linearGradient>
</defs>
</svg>
